<svg width="760" height="196" viewBox="0 0 760 196" fill="none" xmlns="http://www.w3.org/2000/svg">
<path d="M262.539 47.1211V127.095H294.776V149.647H235.75V47.281L262.539 47.1211Z" fill="white"/>
<path d="M341.715 38.3878C344.469 38.3878 347.162 39.1983 349.452 40.7168C351.742 42.2353 353.527 44.3936 354.581 46.9188C355.635 49.444 355.911 52.2226 355.374 54.9033C354.836 57.584 353.51 60.0464 351.562 61.9791C349.615 63.9118 347.133 65.228 344.432 65.7612C341.73 66.2944 338.93 66.0208 336.385 64.9748C333.841 63.9288 331.666 62.1576 330.135 59.885C328.605 57.6124 327.788 54.9405 327.788 52.2073C327.78 50.3901 328.134 48.5893 328.831 46.9088C329.528 45.2283 330.553 43.7015 331.848 42.4166C333.143 41.1316 334.682 40.114 336.375 39.4225C338.069 38.731 339.883 38.3794 341.715 38.3878V38.3878ZM354.094 80.7739V149.519H329.336V80.9018L354.094 80.7739Z" fill="white"/>
<path d="M397.936 147.694C395.727 145.459 394.228 142.629 393.625 139.556C393.021 136.483 393.34 133.302 394.541 130.407C395.743 127.512 397.774 125.03 400.383 123.27C402.992 121.509 406.064 120.547 409.219 120.503C411.361 120.529 413.476 120.978 415.441 121.823C417.406 122.669 419.181 123.895 420.664 125.43C422.148 126.855 423.315 128.574 424.087 130.475C424.859 132.376 425.219 134.418 425.144 136.466C425.214 138.557 424.836 140.638 424.036 142.574C423.235 144.509 422.031 146.254 420.502 147.694C419.041 149.2 417.288 150.397 415.35 151.215C413.411 152.033 411.326 152.455 409.219 152.455C407.113 152.455 405.028 152.033 403.089 151.215C401.15 150.397 399.398 149.2 397.936 147.694Z" fill="white"/>
<path d="M493.39 47.1211V127.095H525.627V149.647H466.633V47.281L493.39 47.1211Z" fill="white"/>
<path d="M613.795 80.9006H638.553V149.518H613.795V142C611.258 145.227 607.979 147.802 604.232 149.511C600.485 151.22 596.38 152.012 592.261 151.821C587.569 151.856 582.922 150.905 578.627 149.031C574.332 147.156 570.486 144.4 567.341 140.945C564.075 137.614 561.516 133.667 559.816 129.337C558.116 125.007 557.309 120.382 557.444 115.737C557.297 110.683 558.164 105.651 559.996 100.933C561.828 96.2155 564.588 91.9068 568.115 88.2581C574.857 81.9793 583.789 78.5392 593.034 78.6613C596.933 78.5944 600.801 79.3531 604.381 80.8865C607.961 82.42 611.17 84.6931 613.795 87.5544V80.9006ZM587.78 103.933C586.254 105.391 585.034 107.133 584.187 109.06C583.341 110.987 582.886 113.06 582.847 115.161C582.882 119.382 584.597 123.418 587.618 126.39C590.671 129.185 594.623 130.817 598.772 130.996C602.98 130.935 606.991 129.221 609.926 126.23C611.429 124.803 612.617 123.083 613.416 121.178C614.214 119.273 614.607 117.224 614.569 115.161C614.593 113.067 614.178 110.99 613.351 109.063C612.524 107.136 611.303 105.4 609.765 103.965C606.826 101.116 602.881 99.5213 598.772 99.5213C594.664 99.5213 590.719 101.116 587.78 103.965V103.933Z" fill="white"/>
<path d="M703.512 37.5879V87.4914C706.117 84.649 709.3 82.3867 712.851 80.8539C716.402 79.321 720.24 78.5523 724.112 78.5984C733.145 78.45 741.892 81.7477 748.547 87.8113C752.186 91.3443 755.064 95.5725 757.009 100.241C758.954 104.909 759.925 109.92 759.863 114.97C759.94 120.038 758.993 125.069 757.077 129.767C755.161 134.465 752.316 138.734 748.709 142.321C745.533 145.476 741.743 147.954 737.569 149.605C733.395 151.255 728.925 152.042 724.434 151.918C720.411 152.048 716.415 151.225 712.777 149.517C709.139 147.809 705.963 145.266 703.512 142.097V149.615H678.754V37.6519L703.512 37.5879ZM729.689 126.359C732.649 123.54 734.374 119.68 734.492 115.61C734.47 111.249 732.749 107.065 729.689 103.934C726.711 101.035 722.706 99.4104 718.535 99.4104C714.363 99.4104 710.358 101.035 707.38 103.934C704.58 107.034 702.951 111.003 702.771 115.162C702.814 117.358 703.302 119.524 704.205 121.529C705.107 123.535 706.406 125.34 708.025 126.838C710.982 129.421 714.758 130.893 718.696 130.997C720.746 130.984 722.773 130.567 724.66 129.77C726.547 128.974 728.256 127.815 729.689 126.359V126.359Z" fill="white"/>
<path d="M0 48.5283V146.8L41.1024 170.216V72.9683L0 48.5283Z" fill="#409B97"/>
<path d="M38.201 26.8066L78.6265 50.7348L41.1024 72.9674L0 48.5275L38.201 26.8066Z" fill="#C0E3DF"/>
<path d="M130.947 71.7847V115.45L171.018 92.1939V48.5283L130.947 71.7847Z" fill="#78BDB4"/>
<path d="M86.073 0L45.1641 23.2563L130.947 71.7844L171.018 48.528L86.073 0Z" fill="#C0E3DF"/>
<path d="M86.0744 149.486L41.1035 123.863V170.216L86.0744 195.999V149.486Z" fill="#409B97"/>
<path d="M86.0723 149.487V196L171.017 147.12V100.095L86.0723 149.487Z" fill="#78BDB4"/>
</svg>
