<svg width="755" height="196" viewBox="0 0 755 196" fill="none" xmlns="http://www.w3.org/2000/svg">
<path d="M260.58 47.1206V127.094H292.577V149.646H233.991V47.2806L260.58 47.1206Z" fill="#41A29E"/>
<path d="M339.166 38.3878C341.9 38.3878 344.572 39.1983 346.845 40.7168C349.119 42.2353 350.89 44.3936 351.936 46.9188C352.983 49.4439 353.256 52.2225 352.723 54.9032C352.19 57.5839 350.873 60.0463 348.94 61.979C347.007 63.9116 344.544 65.2278 341.863 65.761C339.181 66.2942 336.402 66.0206 333.876 64.9746C331.351 63.9287 329.192 62.1574 327.673 59.8848C326.154 57.6122 325.343 54.9404 325.343 52.2072C325.335 50.39 325.687 48.5892 326.378 46.9088C327.07 45.2283 328.088 43.7015 329.373 42.4165C330.658 41.1316 332.185 40.114 333.866 39.4225C335.547 38.731 337.348 38.3794 339.166 38.3878V38.3878ZM351.453 80.7736V149.518H326.879V80.9015L351.453 80.7736Z" fill="#41A29E"/>
<path d="M394.969 147.692C392.777 145.457 391.289 142.627 390.69 139.554C390.091 136.481 390.407 133.3 391.6 130.405C392.792 127.51 394.808 125.028 397.398 123.268C399.987 121.507 403.037 120.545 406.168 120.501C408.294 120.527 410.393 120.976 412.344 121.822C414.294 122.667 416.056 123.893 417.527 125.428C419.001 126.853 420.158 128.572 420.925 130.473C421.691 132.374 422.049 134.416 421.975 136.464C422.043 138.555 421.668 140.636 420.874 142.572C420.08 144.507 418.885 146.252 417.367 147.692C415.916 149.198 414.177 150.395 412.253 151.213C410.329 152.031 408.259 152.453 406.168 152.453C404.077 152.453 402.008 152.031 400.084 151.213C398.159 150.395 396.42 149.198 394.969 147.692Z" fill="#41A29E"/>
<path d="M489.713 47.1206V127.094H521.709V149.646H463.155V47.2806L489.713 47.1206Z" fill="#41A29E"/>
<path d="M609.218 80.8986H633.792V149.516H609.218V141.998C606.701 145.224 603.446 147.8 599.727 149.508C596.008 151.217 591.933 152.009 587.845 151.819C583.188 151.854 578.576 150.903 574.313 149.028C570.05 147.154 566.232 144.398 563.111 140.942C559.869 137.612 557.329 133.665 555.642 129.335C553.954 125.005 553.154 120.38 553.288 115.735C553.141 110.681 554.002 105.649 555.821 100.931C557.639 96.2134 560.378 91.9047 563.879 88.2561C570.57 81.9773 579.436 78.5373 588.613 78.6593C592.482 78.5925 596.321 79.3511 599.875 80.8846C603.428 82.418 606.613 84.6911 609.218 87.5523V80.8986ZM583.397 103.931C581.883 105.389 580.672 107.131 579.832 109.058C578.992 110.984 578.54 113.058 578.502 115.159C578.536 119.38 580.238 123.416 583.237 126.387C586.267 129.183 590.189 130.815 594.308 130.994C598.484 130.933 602.465 129.219 605.379 126.227C606.87 124.801 608.049 123.081 608.842 121.176C609.635 119.271 610.025 117.222 609.986 115.159C610.01 113.065 609.599 110.988 608.778 109.061C607.957 107.133 606.745 105.397 605.219 103.963C602.302 101.114 598.386 99.5192 594.308 99.5192C590.23 99.5192 586.314 101.114 583.397 103.963V103.931Z" fill="#41A29E"/>
<path d="M698.267 37.5845V87.4877C700.853 84.6452 704.013 82.383 707.537 80.8501C711.061 79.3173 714.87 78.5486 718.713 78.5947C727.68 78.4463 736.361 81.744 742.967 87.8076C746.578 91.3405 749.435 95.5687 751.365 100.237C753.296 104.905 754.259 109.916 754.198 114.966C754.275 120.034 753.335 125.065 751.433 129.763C749.532 134.461 746.707 138.73 743.127 142.317C739.976 145.472 736.213 147.95 732.07 149.6C727.927 151.251 723.491 152.038 719.033 151.914C715.041 152.044 711.074 151.22 707.463 149.513C703.852 147.805 700.7 145.261 698.267 142.093V149.611H673.694V37.6485L698.267 37.5845ZM724.249 126.355C727.187 123.536 728.899 119.676 729.016 115.606C728.995 111.245 727.286 107.061 724.249 103.93C721.294 101.031 717.318 99.4066 713.178 99.4066C709.037 99.4066 705.062 101.031 702.107 103.93C699.327 107.03 697.71 110.999 697.531 115.158C697.575 117.355 698.059 119.52 698.955 121.525C699.851 123.531 701.14 125.336 702.747 126.834C705.682 129.417 709.43 130.889 713.338 130.993C715.373 130.98 717.385 130.563 719.258 129.766C721.131 128.97 722.827 127.811 724.249 126.355V126.355Z" fill="#41A29E"/>
<path d="M0 48.5288V146.8L40.7959 170.216V72.9686L0 48.5288Z" fill="#409B97"/>
<path d="M37.9162 26.8057L78.0402 50.7336L40.7959 72.9661L0 48.5264L37.9162 26.8057Z" fill="#C0E3DF"/>
<path d="M129.971 71.785V115.45L169.743 92.1941V48.5288L129.971 71.785Z" fill="#78BDB4"/>
<path d="M85.433 0L44.8291 23.2562L129.973 71.7839L169.745 48.5277L85.433 0Z" fill="#C0E3DF"/>
<path d="M85.4329 149.486L40.7974 123.863V170.215L85.4329 195.999V149.486Z" fill="#409B97"/>
<path d="M85.4302 149.488V196L169.742 147.12V100.096L85.4302 149.488Z" fill="#78BDB4"/>
</svg>
