<svg width="24" height="20" viewBox="0 0 24 20" fill="none" xmlns="http://www.w3.org/2000/svg">
<path d="M24 2.70889C23.1075 3.10039 22.1565 3.35989 21.165 3.48589C22.185 2.87689 22.9635 1.91989 23.3295 0.766391C22.3785 1.33339 21.3285 1.73389 20.2095 1.95739C19.3065 0.995891 18.0195 0.400391 16.6155 0.400391C13.8915 0.400391 11.6985 2.61139 11.6985 5.32189C11.6985 5.71189 11.7315 6.08689 11.8125 6.44389C7.722 6.24439 4.1025 4.28389 1.671 1.29739C1.2465 2.03389 0.9975 2.87689 0.9975 3.78439C0.9975 5.48839 1.875 6.99889 3.183 7.87339C2.3925 7.85839 1.617 7.62889 0.96 7.26739C0.96 7.28239 0.96 7.30189 0.96 7.32139C0.96 9.71239 2.6655 11.6984 4.902 12.1559C4.5015 12.2654 4.065 12.3179 3.612 12.3179C3.297 12.3179 2.979 12.2999 2.6805 12.2339C3.318 14.1824 5.127 15.6149 7.278 15.6614C5.604 16.9709 3.4785 17.7599 1.1775 17.7599C0.774 17.7599 0.387 17.7419 0 17.6924C2.1795 19.0979 4.7625 19.9004 7.548 19.9004C16.602 19.9004 21.552 12.4004 21.552 5.89939C21.552 5.68189 21.5445 5.47189 21.534 5.26339C22.5105 4.57039 23.331 3.70489 24 2.70889Z" fill="#CFC6B9"/>
</svg>
