<svg width="30" height="23" viewBox="0 0 30 23" fill="none" xmlns="http://www.w3.org/2000/svg">
<path d="M29.0767 2.72285C28.024 3.18462 26.9023 3.49069 25.7329 3.63931C26.936 2.921 27.8542 1.79223 28.2859 0.431692C27.1642 1.10046 25.9257 1.57285 24.6059 1.83646C23.5408 0.702385 22.0228 0 20.3668 0C17.1539 0 14.5673 2.60785 14.5673 5.80485C14.5673 6.26485 14.6062 6.70715 14.7017 7.12823C9.87704 6.89292 5.60789 4.58054 2.73997 1.058C2.23927 1.92669 1.94558 2.921 1.94558 3.99138C1.94558 6.00123 2.98058 7.78285 4.52335 8.81431C3.59097 8.79661 2.67627 8.52592 1.90135 8.09954C1.90135 8.11723 1.90135 8.14023 1.90135 8.16323C1.90135 10.9834 3.91297 13.3258 6.55089 13.8655C6.0785 13.9946 5.56366 14.0565 5.02935 14.0565C4.65781 14.0565 4.28274 14.0353 3.93066 13.9575C4.68258 16.2557 6.81627 17.9453 9.35335 18.0002C7.37889 19.5447 4.87189 20.4753 2.15789 20.4753C1.68197 20.4753 1.2255 20.4541 0.769043 20.3957C3.33974 22.0535 6.38635 23 9.67181 23C20.3509 23 26.1894 14.1538 26.1894 6.486C26.1894 6.22946 26.1805 5.98177 26.1681 5.73585C27.3199 4.91846 28.2877 3.89762 29.0767 2.72285Z" fill="white"/>
</svg>
